<svg xmlns="http://www.w3.org/2000/svg" viewBox="0 0 1920 1080" width="1920" height="1080">
  <defs>
    <linearGradient id="skyD" x1="0" y1="0" x2="0" y2="1">
      <stop offset="0%" stop-color="#1a1715"/>
      <stop offset="100%" stop-color="#0C0B0A"/>
    </linearGradient>
    <linearGradient id="bldgD" x1="1" y1="0" x2="0" y2="0">
      <stop offset="0%" stop-color="#1e1c19"/>
      <stop offset="100%" stop-color="#131110"/>
    </linearGradient>
  </defs>

  <!-- Sky -->
  <rect width="1920" height="1080" fill="url(#skyD)"/>

  <!-- Ground plane -->
  <rect x="0" y="820" width="1920" height="260" fill="#0a0908"/>

  <!-- Building - Left side perspective -->
  <polygon points="620,180 1620,200 1620,820 620,820" fill="url(#bldgD)" stroke="#1f1d1a" stroke-width="1"/>
  <!-- Side wing receding left -->
  <polygon points="270,240 620,180 620,820 270,820" fill="#141210" stroke="#1a1816" stroke-width="0.5"/>

  <!-- Roof lines -->
  <line x1="610" y1="175" x2="1630" y2="195" stroke="#252220" stroke-width="2"/>
  <line x1="260" y1="235" x2="625" y2="175" stroke="#252220" stroke-width="1.5"/>

  <!-- Window grid on main face (6 cols x 6 rows) -->
  <g fill="#16140f" stroke="#1f1d18" stroke-width="0.5">
    <rect x="690" y="220" width="110" height="72"/>
    <rect x="840" y="222" width="110" height="72"/>
    <rect x="990" y="224" width="110" height="72"/>
    <rect x="1140" y="226" width="110" height="72"/>
    <rect x="1290" y="228" width="110" height="72"/>
    <rect x="1440" y="230" width="110" height="72"/>

    <rect x="690" y="322" width="110" height="72"/>
    <rect x="840" y="324" width="110" height="72"/>
    <rect x="990" y="326" width="110" height="72"/>
    <rect x="1140" y="328" width="110" height="72"/>
    <rect x="1290" y="330" width="110" height="72"/>
    <rect x="1440" y="332" width="110" height="72"/>

    <rect x="690" y="424" width="110" height="72"/>
    <rect x="840" y="426" width="110" height="72"/>
    <rect x="990" y="428" width="110" height="72"/>
    <rect x="1140" y="430" width="110" height="72"/>
    <rect x="1290" y="432" width="110" height="72"/>
    <rect x="1440" y="434" width="110" height="72"/>

    <rect x="690" y="526" width="110" height="72"/>
    <rect x="840" y="528" width="110" height="72"/>
    <rect x="990" y="530" width="110" height="72"/>
    <rect x="1140" y="532" width="110" height="72"/>
    <rect x="1290" y="534" width="110" height="72"/>
    <rect x="1440" y="536" width="110" height="72"/>

    <rect x="690" y="628" width="110" height="72"/>
    <rect x="840" y="630" width="110" height="72"/>
    <rect x="990" y="632" width="110" height="72"/>
    <rect x="1140" y="634" width="110" height="72"/>
    <rect x="1290" y="636" width="110" height="72"/>
    <rect x="1440" y="638" width="110" height="72"/>

    <rect x="690" y="730" width="110" height="72"/>
    <rect x="840" y="732" width="110" height="72"/>
    <rect x="990" y="734" width="110" height="72"/>
    <rect x="1140" y="736" width="110" height="72"/>
    <rect x="1290" y="738" width="110" height="72"/>
    <rect x="1440" y="740" width="110" height="72"/>
  </g>

  <!-- Side wing windows -->
  <g fill="#110f0d" stroke="#1a1816" stroke-width="0.5">
    <rect x="310" y="286" width="80" height="60"/>
    <rect x="430" y="280" width="80" height="60"/>
    <rect x="310" y="376" width="80" height="60"/>
    <rect x="430" y="370" width="80" height="60"/>
    <rect x="310" y="466" width="80" height="60"/>
    <rect x="430" y="460" width="80" height="60"/>
    <rect x="310" y="556" width="80" height="60"/>
    <rect x="430" y="550" width="80" height="60"/>
    <rect x="310" y="646" width="80" height="60"/>
    <rect x="430" y="640" width="80" height="60"/>
    <rect x="310" y="736" width="80" height="60"/>
    <rect x="430" y="730" width="80" height="60"/>
  </g>

  <!-- Labels -->
  <text x="960" y="950" text-anchor="middle" font-family="Georgia, serif" font-size="72" font-weight="bold" fill="#C5A46C" letter-spacing="12">FASADA D</text>
  <text x="960" y="1000" text-anchor="middle" font-family="Georgia, serif" font-size="28" fill="#C5A46C" opacity="0.5" letter-spacing="6">Belveder Residence</text>
</svg>
