<svg xmlns="http://www.w3.org/2000/svg" viewBox="0 0 1920 1080" width="1920" height="1080">
  <defs>
    <linearGradient id="skyA" x1="0" y1="0" x2="0" y2="1">
      <stop offset="0%" stop-color="#1a1816"/>
      <stop offset="100%" stop-color="#0C0B0A"/>
    </linearGradient>
    <linearGradient id="bldgA" x1="0" y1="0" x2="0" y2="1">
      <stop offset="0%" stop-color="#1e1c19"/>
      <stop offset="100%" stop-color="#141210"/>
    </linearGradient>
  </defs>
  <rect width="1920" height="1080" fill="url(#skyA)"/>
  <rect x="0" y="820" width="1920" height="260" fill="#0a0908"/>
  <rect x="360" y="180" width="1200" height="640" fill="url(#bldgA)" stroke="#1f1d1a" stroke-width="1"/>
  <rect x="340" y="170" width="1240" height="20" fill="#1a1816" stroke="#252220" stroke-width="0.5"/>
  <g fill="#16140f" stroke="#1f1d18" stroke-width="0.5">
    <rect x="420" y="220" width="100" height="70"/><rect x="560" y="220" width="100" height="70"/><rect x="700" y="220" width="100" height="70"/><rect x="840" y="220" width="100" height="70"/><rect x="980" y="220" width="100" height="70"/><rect x="1120" y="220" width="100" height="70"/><rect x="1260" y="220" width="100" height="70"/><rect x="1400" y="220" width="100" height="70"/>
    <rect x="420" y="320" width="100" height="70"/><rect x="560" y="320" width="100" height="70"/><rect x="700" y="320" width="100" height="70"/><rect x="840" y="320" width="100" height="70"/><rect x="980" y="320" width="100" height="70"/><rect x="1120" y="320" width="100" height="70"/><rect x="1260" y="320" width="100" height="70"/><rect x="1400" y="320" width="100" height="70"/>
    <rect x="420" y="420" width="100" height="70"/><rect x="560" y="420" width="100" height="70"/><rect x="700" y="420" width="100" height="70"/><rect x="840" y="420" width="100" height="70"/><rect x="980" y="420" width="100" height="70"/><rect x="1120" y="420" width="100" height="70"/><rect x="1260" y="420" width="100" height="70"/><rect x="1400" y="420" width="100" height="70"/>
    <rect x="420" y="520" width="100" height="70"/><rect x="560" y="520" width="100" height="70"/><rect x="700" y="520" width="100" height="70"/><rect x="840" y="520" width="100" height="70"/><rect x="980" y="520" width="100" height="70"/><rect x="1120" y="520" width="100" height="70"/><rect x="1260" y="520" width="100" height="70"/><rect x="1400" y="520" width="100" height="70"/>
    <rect x="420" y="620" width="100" height="70"/><rect x="560" y="620" width="100" height="70"/><rect x="700" y="620" width="100" height="70"/><rect x="840" y="620" width="100" height="70"/><rect x="980" y="620" width="100" height="70"/><rect x="1120" y="620" width="100" height="70"/><rect x="1260" y="620" width="100" height="70"/><rect x="1400" y="620" width="100" height="70"/>
    <rect x="420" y="720" width="100" height="70"/><rect x="560" y="720" width="100" height="70"/><rect x="700" y="720" width="100" height="70"/><rect x="840" y="720" width="100" height="70"/><rect x="980" y="720" width="100" height="70"/><rect x="1120" y="720" width="100" height="70"/><rect x="1260" y="720" width="100" height="70"/><rect x="1400" y="720" width="100" height="70"/>
  </g>
  <rect x="880" y="740" width="160" height="80" fill="#100e0c" stroke="#1f1d18" stroke-width="1"/>
  <text x="960" y="950" text-anchor="middle" font-family="Georgia, serif" font-size="72" font-weight="bold" fill="#C5A46C" letter-spacing="12">FASADA A</text>
  <text x="960" y="1000" text-anchor="middle" font-family="Georgia, serif" font-size="28" fill="#C5A46C" opacity="0.5" letter-spacing="6">Belveder Residence</text>
</svg>
