<svg xmlns="http://www.w3.org/2000/svg" viewBox="0 0 1920 1080" width="1920" height="1080">
  <defs>
    <linearGradient id="skyB" x1="0" y1="0" x2="0" y2="1">
      <stop offset="0%" stop-color="#181614"/>
      <stop offset="100%" stop-color="#0C0B0A"/>
    </linearGradient>
    <linearGradient id="bldgB" x1="0" y1="0" x2="1" y2="1">
      <stop offset="0%" stop-color="#1c1a17"/>
      <stop offset="100%" stop-color="#121110"/>
    </linearGradient>
  </defs>

  <!-- Sky -->
  <rect width="1920" height="1080" fill="url(#skyB)"/>

  <!-- Ground plane -->
  <rect x="0" y="820" width="1920" height="260" fill="#0a0908"/>

  <!-- Building - Right side perspective -->
  <polygon points="300,200 1300,180 1300,820 300,820" fill="url(#bldgB)" stroke="#1f1d1a" stroke-width="1"/>
  <!-- Side wing receding -->
  <polygon points="1300,180 1650,240 1650,820 1300,820" fill="#141210" stroke="#1a1816" stroke-width="0.5"/>

  <!-- Roof line -->
  <line x1="280" y1="195" x2="1310" y2="175" stroke="#252220" stroke-width="2"/>
  <line x1="1300" y1="175" x2="1660" y2="235" stroke="#252220" stroke-width="1.5"/>

  <!-- Window grid on main face (7 cols x 6 rows) -->
  <g fill="#16140f" stroke="#1f1d18" stroke-width="0.5">
    <rect x="360" y="230" width="110" height="72"/>
    <rect x="510" y="228" width="110" height="72"/>
    <rect x="660" y="226" width="110" height="72"/>
    <rect x="810" y="224" width="110" height="72"/>
    <rect x="960" y="222" width="110" height="72"/>
    <rect x="1110" y="220" width="110" height="72"/>

    <rect x="360" y="332" width="110" height="72"/>
    <rect x="510" y="330" width="110" height="72"/>
    <rect x="660" y="328" width="110" height="72"/>
    <rect x="810" y="326" width="110" height="72"/>
    <rect x="960" y="324" width="110" height="72"/>
    <rect x="1110" y="322" width="110" height="72"/>

    <rect x="360" y="434" width="110" height="72"/>
    <rect x="510" y="432" width="110" height="72"/>
    <rect x="660" y="430" width="110" height="72"/>
    <rect x="810" y="428" width="110" height="72"/>
    <rect x="960" y="426" width="110" height="72"/>
    <rect x="1110" y="424" width="110" height="72"/>

    <rect x="360" y="536" width="110" height="72"/>
    <rect x="510" y="534" width="110" height="72"/>
    <rect x="660" y="532" width="110" height="72"/>
    <rect x="810" y="530" width="110" height="72"/>
    <rect x="960" y="528" width="110" height="72"/>
    <rect x="1110" y="526" width="110" height="72"/>

    <rect x="360" y="638" width="110" height="72"/>
    <rect x="510" y="636" width="110" height="72"/>
    <rect x="660" y="634" width="110" height="72"/>
    <rect x="810" y="632" width="110" height="72"/>
    <rect x="960" y="630" width="110" height="72"/>
    <rect x="1110" y="628" width="110" height="72"/>

    <rect x="360" y="730" width="110" height="72"/>
    <rect x="510" y="728" width="110" height="72"/>
    <rect x="660" y="726" width="110" height="72"/>
    <rect x="810" y="724" width="110" height="72"/>
    <rect x="960" y="722" width="110" height="72"/>
    <rect x="1110" y="720" width="110" height="72"/>
  </g>

  <!-- Side wing windows (narrower, 2 cols x 6 rows) -->
  <g fill="#110f0d" stroke="#1a1816" stroke-width="0.5">
    <rect x="1340" y="280" width="80" height="60"/>
    <rect x="1460" y="286" width="80" height="60"/>
    <rect x="1340" y="370" width="80" height="60"/>
    <rect x="1460" y="376" width="80" height="60"/>
    <rect x="1340" y="460" width="80" height="60"/>
    <rect x="1460" y="466" width="80" height="60"/>
    <rect x="1340" y="550" width="80" height="60"/>
    <rect x="1460" y="556" width="80" height="60"/>
    <rect x="1340" y="640" width="80" height="60"/>
    <rect x="1460" y="646" width="80" height="60"/>
    <rect x="1340" y="730" width="80" height="60"/>
    <rect x="1460" y="736" width="80" height="60"/>
  </g>

  <!-- Labels -->
  <text x="960" y="950" text-anchor="middle" font-family="Georgia, serif" font-size="72" font-weight="bold" fill="#C5A46C" letter-spacing="12">FASADA B</text>
  <text x="960" y="1000" text-anchor="middle" font-family="Georgia, serif" font-size="28" fill="#C5A46C" opacity="0.5" letter-spacing="6">Belveder Residence</text>
</svg>
